<svg width="251" height="151" viewBox="0 0 251 151" fill="none" xmlns="http://www.w3.org/2000/svg">
<path d="M59.3326 75.8122C58.044 75.8122 56.9954 76.8573 57.0372 78.1453C57.5026 92.5052 62.2555 106.418 70.7105 118.078C79.6226 130.369 92.1917 139.528 106.622 144.246C121.052 148.965 136.604 149.001 151.056 144.351C165.508 139.7 178.12 130.6 187.089 118.351C196.059 106.102 200.927 91.3318 200.999 76.1502C201.07 60.9685 196.34 46.1529 187.486 33.8204C178.632 21.488 166.106 12.27 151.698 7.48382C138.03 2.94312 123.331 2.61163 109.501 6.50269C108.26 6.85169 107.58 8.16685 107.969 9.39535C108.358 10.6238 109.669 11.3002 110.91 10.954C123.802 7.3583 137.492 7.68185 150.227 11.9123C163.701 16.3883 175.415 25.0089 183.695 36.542C191.976 48.0751 196.399 61.9306 196.332 76.1283C196.266 90.326 191.713 104.139 183.324 115.594C174.936 127.049 163.141 135.559 149.626 139.909C136.111 144.258 121.567 144.224 108.072 139.811C94.5773 135.398 82.8228 126.833 74.4883 115.339C66.611 104.475 62.1698 91.5209 61.7063 78.1452C61.6616 76.8573 60.6212 75.8122 59.3326 75.8122Z" fill="#6266F4"/>
<circle cx="213.999" cy="4.8121" r="4" fill="#FF5A82"/>
<circle cx="247" cy="73.8121" r="4" fill="#6266F4"/>
<circle cx="219" cy="146.812" r="4" fill="#73DAE8"/>
<circle cx="26.9995" cy="142.812" r="4" fill="#4785FF"/>
<circle cx="3.99954" cy="68.8121" r="4" fill="#FF5A82"/>
<circle cx="43.9998" cy="10.812" r="4" fill="#6266F4"/>
</svg>
