<svg width="32" height="33" viewBox="0 0 32 33" fill="none" xmlns="http://www.w3.org/2000/svg">
<g clip-path="url(#clip0)">
<path d="M3.99954 28.1455C3.26354 28.1455 2.6662 27.5495 2.6662 26.8121V19.4788C2.6662 18.7415 3.26354 18.1455 3.99954 18.1455C4.73554 18.1455 5.33287 18.7415 5.33287 19.4788V26.8121C5.33287 27.5495 4.73554 28.1455 3.99954 28.1455Z" fill="white"/>
<path d="M28.0003 31.4788C29.4731 31.4788 30.667 30.2849 30.667 28.8121C30.667 27.3394 29.4731 26.1455 28.0003 26.1455C26.5276 26.1455 25.3337 27.3394 25.3337 28.8121C25.3337 30.2849 26.5276 31.4788 28.0003 31.4788Z" fill="white"/>
<path d="M3.99958 31.4788C5.47234 31.4788 6.66625 30.2849 6.66625 28.8121C6.66625 27.3394 5.47234 26.1455 3.99958 26.1455C2.52682 26.1455 1.33291 27.3394 1.33291 28.8121C1.33291 30.2849 2.52682 31.4788 3.99958 31.4788Z" fill="white"/>
<path d="M30.9996 19.4786H0.999622C0.447621 19.4786 -0.000378609 19.0306 -0.000378609 18.4786V17.812C-0.000378609 15.7893 1.64362 14.1453 3.66629 14.1453H28.333C30.3556 14.1453 31.9996 15.7893 31.9996 17.812V18.4786C31.9996 19.0306 31.5516 19.4786 30.9996 19.4786Z" fill="white"/>
<path d="M3.9995 22.1454H27.9995V24.8121H3.9995V22.1454Z" fill="white"/>
<path d="M5.33287 11.4786C3.8622 11.4786 2.6662 10.2813 2.6662 8.81197C2.6662 7.34263 3.8622 6.1453 5.33287 6.1453C6.80354 6.1453 7.99954 7.34263 7.99954 8.81197C7.99954 10.2813 6.80354 11.4786 5.33287 11.4786Z" fill="white"/>
<path d="M28.3329 11.4786H11.6662C11.1142 11.4786 10.6662 11.0306 10.6662 10.4786V8.81197C10.6662 7.33863 11.8595 6.1453 13.3329 6.1453H23.4115C25.9995 6.1453 28.3249 7.7293 29.2742 10.1373C29.3849 10.4426 29.3395 10.7853 29.1529 11.0533C28.9662 11.3213 28.6595 11.4786 28.3329 11.4786Z" fill="white"/>
<path d="M27.9998 28.1455C27.2638 28.1455 26.6664 27.5495 26.6664 26.8121V19.4788C26.6664 18.7415 27.2638 18.1455 27.9998 18.1455C28.7358 18.1455 29.3331 18.7415 29.3331 19.4788V26.8121C29.3331 27.5495 28.7358 28.1455 27.9998 28.1455Z" fill="white"/>
</g>
<defs>
<clipPath id="clip0">
<rect width="32" height="32" fill="white" transform="translate(-0.000358582 0.812057)"/>
</clipPath>
</defs>
</svg>
