<svg width="28" height="29" viewBox="0 0 28 29" fill="none" xmlns="http://www.w3.org/2000/svg">
<g clip-path="url(#clip0)">
<path d="M24.9422 20.7318C23.1782 19.2408 22.1667 17.0615 22.1667 14.7527V11.5C22.1667 7.7331 19.5993 4.56139 16.1245 3.62408C15.495 3.45427 14.8427 3.3844 14.1915 3.35157C13.9795 3.34089 13.7176 3.35104 13.4806 3.36695C13.0482 3.39598 12.6167 3.44917 12.1941 3.545C8.55783 4.36951 5.83337 7.61883 5.83337 11.5V14.7527C5.83337 17.0615 4.82187 19.2408 3.04737 20.7412C2.59354 21.1297 2.33337 21.6943 2.33337 22.2917C2.33337 23.4175 3.24921 24.3333 4.37504 24.3333H23.625C24.7509 24.3333 25.6667 23.4175 25.6667 22.2917C25.6667 21.6943 25.4065 21.1297 24.9422 20.7318Z" fill="#E4E4E4"/>
<path d="M14 29C15.6823 29 17.1456 28.0452 17.8771 26.6496C18.1707 26.0894 17.6947 25.5 17.0622 25.5H10.9378C10.3054 25.5 9.82931 26.0894 10.1229 26.6496C10.8544 28.0452 12.3178 29 14 29Z" fill="#E4E4E4"/>
<circle cx="20.5" cy="6.5" r="4" fill="#FF5A82" stroke="#202342"/>
</g>
<defs>
<clipPath id="clip0">
<rect width="28" height="28" fill="white" transform="translate(0 1)"/>
</clipPath>
</defs>
</svg>
