<svg width="44" height="45" viewBox="0 0 44 45" fill="none" xmlns="http://www.w3.org/2000/svg">
<g clip-path="url(#clip0)">
<path d="M39.0288 20.6583C39.028 20.6574 39.0272 20.6566 39.0264 20.6558L24.3412 5.97119C23.7153 5.34497 22.8831 5 21.9978 5C21.1126 5 20.2804 5.3447 19.6542 5.97092L4.97672 20.6481C4.97178 20.653 4.96683 20.6583 4.96189 20.6632C3.67649 21.956 3.67869 24.0536 4.96821 25.3431C5.55735 25.9325 6.33546 26.2739 7.1674 26.3096C7.20118 26.3129 7.23524 26.3146 7.26957 26.3146H7.85486V37.1216C7.85486 39.26 9.59482 41 11.7339 41H17.4792C18.0614 41 18.5338 40.5279 18.5338 39.9453V31.4727C18.5338 30.4968 19.3276 29.703 20.3035 29.703H23.6922C24.6681 29.703 25.4618 30.4968 25.4618 31.4727V39.9453C25.4618 40.5279 25.934 41 26.5165 41H32.2618C34.4009 41 36.1408 39.26 36.1408 37.1216V26.3146H36.6835C37.5685 26.3146 38.4007 25.9699 39.0272 25.3437C40.3181 24.0519 40.3186 21.9508 39.0288 20.6583Z" fill="white"/>
</g>
<defs>
<clipPath id="clip0">
<rect width="36" height="36" fill="white" transform="translate(4 5)"/>
</clipPath>
</defs>
</svg>
