<svg width="44" height="45" viewBox="0 0 44 45" fill="none" xmlns="http://www.w3.org/2000/svg">
<path fill-rule="evenodd" clip-rule="evenodd" d="M18.1411 21.4005C17.339 21.4005 16.7048 22.0238 16.7048 22.8122C16.7048 23.5822 17.339 24.2238 18.1411 24.2238H29.333L29.333 21.4008H36.923L33.9896 18.4858C33.4396 17.9358 33.4396 17.0374 33.9896 16.4874C34.5396 15.9191 35.438 15.9191 35.988 16.4691L41.3413 21.8041C41.6163 22.0791 41.763 22.4274 41.763 22.8124C41.763 23.1791 41.6163 23.5458 41.3413 23.8024L35.988 29.1374C35.713 29.4124 35.3463 29.5591 34.998 29.5591C34.6313 29.5591 34.2646 29.4124 33.9896 29.1374C33.4396 28.5874 33.4396 27.6891 33.9896 27.1391L36.923 24.2241H29.333L29.333 32.9872C29.333 37.4788 25.621 41.1455 21.0324 41.1455H11.9483C7.37829 41.1455 3.66632 37.4972 3.66632 33.0055V12.6372C3.66632 8.12715 7.39694 4.47882 11.967 4.47882H21.0697C25.621 4.47882 29.333 8.12715 29.333 12.6188V21.4005H18.1411Z" fill="white"/>
</svg>
