<svg width="40" height="40" viewBox="0 0 40 40" fill="none" xmlns="http://www.w3.org/2000/svg">
<g clip-path="url(#clip0)">
<path d="M36.4846 5.9375H3.51587C1.57345 5.9375 0.000244141 7.52047 0.000244141 9.45312V30.5469C0.000244141 32.491 1.58501 34.0625 3.51587 34.0625H36.4846C38.4108 34.0625 40.0002 32.4977 40.0002 30.5469V9.45312C40.0002 7.52391 38.4333 5.9375 36.4846 5.9375ZM35.9923 8.28125C35.274 8.9957 22.913 21.2916 22.4862 21.7162C21.8221 22.3802 20.9393 22.7459 20.0002 22.7459C19.0612 22.7459 18.1784 22.3802 17.5121 21.714C17.2251 21.4284 5.00048 9.26828 4.00821 8.28125H35.9923ZM2.34399 30.0698V9.93164L12.472 20.0062L2.34399 30.0698ZM4.0097 31.7188L14.1337 21.6591L15.857 23.3734C16.9638 24.4802 18.4352 25.0896 20.0002 25.0896C21.5653 25.0896 23.0367 24.4802 24.1413 23.3756L25.8668 21.6591L35.9908 31.7188H4.0097ZM37.6565 30.0698L27.5285 20.0062L37.6565 9.93164V30.0698Z" fill="white"/>
</g>
<defs>
<clipPath id="clip0">
<rect width="40" height="40" fill="white" transform="translate(0.000244141)"/>
</clipPath>
</defs>
</svg>
