<svg width="32" height="33" viewBox="0 0 32 33" fill="none" xmlns="http://www.w3.org/2000/svg">
<g clip-path="url(#clip0)">
<path d="M24.3327 32.812H23.6661C22.3794 32.812 21.3327 31.7653 21.3327 30.4787V27.4787H18.3327C17.0461 27.4787 15.9994 26.432 15.9994 25.1453V24.4787C15.9994 23.192 17.0461 22.1453 18.3327 22.1453H21.3327V19.1453C21.3327 17.8587 22.3794 16.812 23.6661 16.812H24.3327C25.6194 16.812 26.6661 17.8587 26.6661 19.1453V22.1453H29.6661C30.9527 22.1453 31.9994 23.192 31.9994 24.4787V25.1453C31.9994 26.432 30.9527 27.4787 29.6661 27.4787H26.6661V30.4787C26.6661 31.7653 25.6194 32.812 24.3327 32.812Z" fill="white"/>
<path d="M11.9995 14.1453C15.6814 14.1453 18.6662 11.1606 18.6662 7.47868C18.6662 3.79678 15.6814 0.812012 11.9995 0.812012C8.31759 0.812012 5.33282 3.79678 5.33282 7.47868C5.33282 11.1606 8.31759 14.1453 11.9995 14.1453Z" fill="white"/>
<path d="M13.333 25.1453V24.4787C13.333 21.7213 15.5756 19.4787 18.333 19.4787H18.6663V19.1453C18.6663 18.4093 18.8356 17.716 19.1223 17.0853C18.549 16.9253 17.957 16.812 17.333 16.812H6.6663C2.98497 16.812 -0.000366211 19.7973 -0.000366211 23.4787V27.812C-0.000366211 28.364 0.447634 28.812 0.999634 28.812H14.9596C13.9663 27.8973 13.333 26.5987 13.333 25.1453Z" fill="white"/>
</g>
<defs>
<clipPath id="clip0">
<rect width="32" height="32" fill="white" transform="translate(-6.10352e-05 0.812057)"/>
</clipPath>
</defs>
</svg>
