<svg width="32" height="33" viewBox="0 0 32 33" fill="none" xmlns="http://www.w3.org/2000/svg">
<g clip-path="url(#clip0)">
<path d="M22.819 32.812C22.7536 32.812 22.687 32.8093 22.6216 32.804C11.3056 31.9267 2.15762 22.7827 1.34028 11.5347C1.28962 10.8387 1.52962 10.1467 1.99895 9.63867C2.46562 9.13334 3.10295 8.85067 3.79362 8.84534L8.39095 8.81201C9.53629 8.81201 10.5256 9.58001 10.8016 10.68L11.763 14.4933C12.0056 15.4627 11.6443 16.4733 10.843 17.0707L9.18295 18.308C10.7163 21.0307 13.007 23.3333 15.747 24.9053L17.035 23.2013C17.635 22.408 18.6483 22.0493 19.615 22.2893L23.4563 23.2427C24.5616 23.5173 25.3336 24.5027 25.3336 25.6373V30.344C25.3336 31.0333 25.055 31.672 24.547 32.14C24.0803 32.5733 23.459 32.812 22.819 32.812Z" fill="white"/>
<path d="M22.9999 16.812H22.3332C21.0465 16.812 19.9999 15.7653 19.9999 14.4787V11.4787H16.9999C15.7132 11.4787 14.6665 10.432 14.6665 9.14535V8.47868C14.6665 7.19201 15.7132 6.14535 16.9999 6.14535H19.9999V3.14535C19.9999 1.85868 21.0465 0.812012 22.3332 0.812012H22.9999C24.2865 0.812012 25.3332 1.85868 25.3332 3.14535V6.14535H28.3332C29.6199 6.14535 30.6665 7.19201 30.6665 8.47868V9.14535C30.6665 10.432 29.6199 11.4787 28.3332 11.4787H25.3332V14.4787C25.3332 15.7653 24.2865 16.812 22.9999 16.812Z" fill="white"/>
</g>
<defs>
<clipPath id="clip0">
<rect width="32" height="32" fill="white" transform="translate(-0.000152588 0.812057)"/>
</clipPath>
</defs>
</svg>
