<svg width="40" height="40" viewBox="0 0 40 40" fill="none" xmlns="http://www.w3.org/2000/svg">
<g clip-path="url(#clip0)">
<path d="M21.2553 40H18.7449C16.7146 40 15.0626 38.3481 15.0626 36.3177V35.4684C14.1994 35.1927 13.3607 34.8445 12.555 34.4276L11.9532 35.0295C10.4954 36.489 8.16034 36.4462 6.74495 35.0289L4.97065 33.2547C3.55276 31.8384 3.51198 29.5041 4.97112 28.0465L5.57253 27.4451C5.15557 26.6394 4.80753 25.8009 4.53167 24.9375H3.68245C1.65214 24.9375 0.000183105 23.2856 0.000183105 21.2552V18.7448C0.000183105 16.7144 1.65214 15.0625 3.68253 15.0625H4.53175C4.80761 14.1992 5.15565 13.3606 5.57261 12.5549L4.97073 11.9531C3.51245 10.4964 3.55268 8.16187 4.9712 6.74492L6.74565 4.97055C8.16432 3.54992 10.4989 3.51445 11.9538 4.97102L12.5551 5.57234C13.3608 5.15547 14.1995 4.80734 15.0627 4.53148V3.68227C15.0627 1.65187 16.7146 0 18.745 0H21.2554C23.2858 0 24.9377 1.65187 24.9377 3.68227V4.53156C25.8009 4.80734 26.6396 5.15547 27.4453 5.57242L28.0471 4.97055C29.5049 3.51102 31.8399 3.55383 33.2553 4.97109L35.0296 6.74531C36.4475 8.16164 36.4883 10.4959 35.0292 11.9535L34.4278 12.5549C34.8447 13.3606 35.1928 14.1991 35.4686 15.0625H36.3178C38.3482 15.0625 40.0002 16.7144 40.0002 18.7448V21.2552C40.0002 23.2856 38.3482 24.9375 36.3178 24.9375H35.4686C35.1928 25.8008 34.8447 26.6394 34.4278 27.4451L35.0296 28.047C36.4879 29.5037 36.4477 31.8382 35.0292 33.2552L33.2547 35.0295C31.836 36.4502 29.5015 36.4856 28.0466 35.0291L27.4453 34.4277C26.6396 34.8446 25.8009 35.1927 24.9377 35.4686V36.3179C24.9377 38.3481 23.2858 40 21.2553 40ZM12.9468 31.9664C14.0661 32.6284 15.2708 33.1284 16.5274 33.4527C17.0449 33.5863 17.4064 34.053 17.4064 34.5874V36.3177C17.4064 37.0558 18.007 37.6562 18.745 37.6562H21.2554C21.9935 37.6562 22.594 37.0558 22.594 36.3177V34.5874C22.594 34.053 22.9556 33.5863 23.4731 33.4527C24.7296 33.1284 25.9343 32.6284 27.0536 31.9664C27.5142 31.6941 28.1005 31.7681 28.4789 32.1465L29.7045 33.3722C30.2329 33.9012 31.0815 33.889 31.597 33.3727L33.3725 31.5973C33.8867 31.0837 33.9039 30.2349 33.373 29.7047L32.1468 28.4785C31.7685 28.1002 31.6945 27.5138 31.9667 27.0534C32.6287 25.9341 33.1287 24.7295 33.453 23.4728C33.5866 22.9553 34.0533 22.5938 34.5877 22.5938H36.3179C37.056 22.5938 37.6565 21.9934 37.6565 21.2553V18.7448C37.6565 18.0068 37.056 17.4063 36.3179 17.4063H34.5877C34.0532 17.4063 33.5866 17.0448 33.453 16.5273C33.1287 15.2707 32.6286 14.066 31.9667 12.9468C31.6945 12.4863 31.7685 11.8999 32.1468 11.5216L33.3725 10.2959C33.9024 9.76672 33.8885 8.91828 33.373 8.40336L31.5976 6.62797C31.083 6.11266 30.2342 6.09758 29.705 6.6275L28.4789 7.85367C28.1007 8.23203 27.5141 8.30609 27.0537 8.03375C25.9344 7.3718 24.7297 6.87172 23.4732 6.54742C22.9557 6.41391 22.5941 5.94719 22.5941 5.41273V3.68227C22.5941 2.94422 21.9935 2.34375 21.2555 2.34375H18.7451C18.0071 2.34375 17.4065 2.94422 17.4065 3.68227V5.41258C17.4065 5.94703 17.0449 6.41375 16.5274 6.54727C15.2709 6.87156 14.0662 7.37164 12.9469 8.03359C12.4863 8.30586 11.8999 8.2318 11.5217 7.85352L10.296 6.62781C9.7676 6.09875 8.91893 6.11102 8.40354 6.62727L6.628 8.40273C6.11378 8.91633 6.09659 9.765 6.62753 10.2953L7.8537 11.5215C8.23198 11.8998 8.30604 12.4862 8.03378 12.9466C7.37182 14.0659 6.87182 15.2705 6.54753 16.5272C6.41393 17.0447 5.94721 17.4062 5.41284 17.4062H3.68253C2.94448 17.4062 2.34393 18.0067 2.34393 18.7448V21.2552C2.34393 21.9933 2.94448 22.5938 3.68253 22.5938H5.41276C5.94721 22.5938 6.41386 22.9553 6.54745 23.4727C6.87175 24.7294 7.37182 25.9341 8.0337 27.0533C8.30596 27.5138 8.2319 28.1002 7.85362 28.4784L6.62792 29.7041C6.09807 30.2334 6.1119 31.0818 6.62745 31.5967L8.40284 33.3721C8.91745 33.8874 9.7662 33.9025 10.2954 33.3726L11.5215 32.1464C11.8003 31.8677 12.3802 31.6313 12.9468 31.9664Z" fill="white"/>
<path d="M20.0002 28.7031C15.2012 28.7031 11.2971 24.7989 11.2971 20C11.2971 15.2011 15.2012 11.2969 20.0002 11.2969C24.7992 11.2969 28.7033 15.2011 28.7033 20C28.7033 24.7989 24.7992 28.7031 20.0002 28.7031ZM20.0002 13.6406C16.4935 13.6406 13.6408 16.4934 13.6408 20C13.6408 23.5066 16.4936 26.3594 20.0002 26.3594C23.5067 26.3594 26.3596 23.5066 26.3596 20C26.3596 16.4934 23.5068 13.6406 20.0002 13.6406Z" fill="white"/>
</g>
<defs>
<clipPath id="clip0">
<rect width="40" height="40" fill="white" transform="translate(0.000183105)"/>
</clipPath>
</defs>
</svg>
