<svg width="32" height="33" viewBox="0 0 32 33" fill="none" xmlns="http://www.w3.org/2000/svg">
<g clip-path="url(#clip0)">
<path d="M29.333 14.8121C28.9917 14.8121 28.6503 14.6815 28.3903 14.4215L18.3903 4.42146C17.869 3.90012 17.869 3.05746 18.3903 2.53612C18.9117 2.01479 19.7543 2.01479 20.2757 2.53612L30.2757 12.5361C30.797 13.0575 30.797 13.9001 30.2757 14.4215C30.0157 14.6815 29.6743 14.8121 29.333 14.8121Z" fill="white"/>
<path d="M1.33277 32.812C0.991433 32.812 0.6501 32.6814 0.3901 32.4214C-0.131234 31.9 -0.131234 31.0574 0.3901 30.536L5.05677 25.8694C5.5781 25.348 6.42077 25.348 6.9421 25.8694C7.46343 26.3907 7.46343 27.2334 6.9421 27.7547L2.27543 32.4214C2.01543 32.6814 1.6741 32.812 1.33277 32.812Z" fill="white"/>
<path d="M23.7206 7.20532L28.0538 2.87217L29.9394 4.75779L25.6063 9.09094L23.7206 7.20532Z" fill="white"/>
<path d="M30.6664 6.8121C30.325 6.8121 29.9837 6.68144 29.7237 6.42143L26.3903 3.0881C25.869 2.56677 25.869 1.7241 26.3903 1.20277C26.9117 0.681434 27.7543 0.681434 28.2757 1.20277L31.609 4.5361C32.1304 5.05744 32.1304 5.9001 31.609 6.42143C31.349 6.68144 31.0077 6.8121 30.6664 6.8121Z" fill="white"/>
<path d="M28.0393 10.7721L22.0393 4.77207C21.6486 4.3814 21.0153 4.3814 20.6246 4.77207L4.17793 21.2201C2.74859 22.6494 2.74859 24.9747 4.17793 26.4054L6.40726 28.6347C7.12193 29.3494 8.06059 29.7067 8.99926 29.7067C9.93793 29.7067 10.8766 29.3494 11.5913 28.6347L14.0966 26.1294L11.7233 23.7561C11.2019 23.2347 11.2019 22.3921 11.7233 21.8707C12.2446 21.3494 13.0873 21.3494 13.6086 21.8707L15.9819 24.2441L18.0966 22.1294L14.3899 18.4227C13.8686 17.9014 13.8686 17.0587 14.3899 16.5374C14.9113 16.0161 15.7539 16.0161 16.2753 16.5374L19.9819 20.2441L22.0966 18.1294L19.7233 15.7561C19.2019 15.2347 19.2019 14.3921 19.7233 13.8707C20.2446 13.3494 21.0873 13.3494 21.6086 13.8707L23.9819 16.2441L28.0393 12.1854C28.4299 11.7947 28.4299 11.1627 28.0393 10.7721Z" fill="white"/>
</g>
<defs>
<clipPath id="clip0">
<rect width="32" height="32" fill="white" transform="translate(-0.000793457 0.812057)"/>
</clipPath>
</defs>
</svg>
